# xmcd
#
# Track frame offsets:
#	150
#	11735
#	22742
#	35816
#	49694
#	61287
#	72778
#	84036
#	101524
#	113656
#	126540
#	137289
#	151043
#	160697
#	181918
#	193542
#	213305
#	229596
#	247364
#	261249
#	279517
#	291933
#
# Disc length: 4097 seconds
#
# Revision: 1
# Processed by: cddbd v1.4PL0 Copyright (c) Steve Scherf et al.
# Submitted via: audiograbber 1.82.01
#
DISCID=2a0fff16
DTITLE=Willie Nelson - The Essential Willie Nelson Disc 1
DYEAR=2003
DGENRE=Country
TTITLE0=Willie Nelson - Night Life
TTITLE1=Willie Nelson - Hello Walls
TTITLE2=Willie Nelson - Crazy
TTITLE3=Willie Nelson - Funny How Time Slips Away
TTITLE4=Willie Nelson - I Never Cared For You
TTITLE5=Willie Nelson - The Party's Over
TTITLE6=Willie Nelson - Good Times
TTITLE7=Willie Nelson - Me And Paul
TTITLE8=Willie Nelson - Shotgun Willie
TTITLE9=Willie Nelson - Bloody Mary Morning
TTITLE10=Willie Nelson - Blue Eyes Crying In The Rain
TTITLE11=Willie Nelson and Waylon Jenning - Good Hearted Woman
TTITLE12=Willie Nelson - if You've Got the Money, I've Got The Time
TTITLE13=Willie Nelson - Uncloudy Day
TTITLE14=Willie Nelson and Waylon Jennings - Mammas Don't Let Your Babies Grow Up
TTITLE14=To Be Cowboys
TTITLE15=Willie Nelson - Georgia On My Mind
TTITLE16=Willie Nelson - Blue Skies
TTITLE17=Willie Nelson - All Of Me
TTITLE18=Willie Nelson and Leon Russell - Heartbreak Hotel
TTITLE19=Willie Nelson - Help Me Make It Through The Night
TTITLE20=Willie Nelson - Whiskey River (Live)
TTITLE21=Willie Nelson - Stay A Little Longer (Live)
EXTD=
EXTT0=
EXTT1=
EXTT2=
EXTT3=
EXTT4=
EXTT5=
EXTT6=
EXTT7=
EXTT8=
EXTT9=
EXTT10=
EXTT11=
EXTT12=
EXTT13=
EXTT14=
EXTT15=
EXTT16=
EXTT17=
EXTT18=
EXTT19=
EXTT20=
EXTT21=
PLAYORDER=
